<?xml version="1.0" encoding="UTF-8"?>
<svg id="Layer_2" data-name="Layer 2" xmlns="http://www.w3.org/2000/svg" viewBox="0 0 164.8 87.09">
  <defs>
    <style>
      .cls-1 {
        fill: none;
      }

      .cls-1, .cls-2 {
        stroke: #7c4432;
        stroke-linecap: round;
        stroke-miterlimit: 10;
        stroke-width: .75px;
      }

      .cls-3, .cls-2 {
        fill: #7c4432;
      }
    </style>
  </defs>
  <g id="Layer_1-2" data-name="Layer 1">
    <g>
      <path class="cls-1" d="M67.92,9.08s.03-2.66-2.56-5.15c0,0,2.98-.34,5.62,2.3,0,0,2.04.85,5.87.68,3.83-.17,9.96,1.7,13.02,4.3,3.06,2.6,15.36,11.7,17.45,13.32s7.11,3.57,10.6,2.85,9.94-2.86,16.25-1.66c5.91,1.12,9.45,7.58,9.45,7.58,0,0,7.53-1.91,12.04,1.23,4.51,3.15,2.83,11.7,2.68,12.89-.21,1.7-1.66,9.06,5.23,12.17-5.82,1.15-8.59-3.32-9.32-11.53-1.27,2.72-1.87,5.36.13,9.06-2.81-1.56-3.77-4.56-4.04-8.09-.12-3.56.08-5.66-.89-8.17-1.22-2.35-2.89-3.18-5.02-2.47.18,2.9.17,5.65-.43,7.91-.98,2.77-1.75,5,.08,7.91,1.23,1.91,4.85,2.51,4,6.81-.27,2.38-.26,4.31-.13,6.03.06.77.36,1.51.89,2.07.37.4.7.82.96,1.27.34.61.46,1.32.33,2.01-.41,2.27.31,3.75,2.41,4.28,1.38.15,2.22.95,2.34,2.64v3.62c-.02,1.07-1.08,1.38-2,.6l-1.79-1.96c-.44,0-.88-.15-1.27-.39-.7-.43-1.08-1.21-1.16-2.03-.12-1.26-.65-1.29-1.62-1.88-1.41-.64-2.58-1.37-2.55-2.51l-.07-3.82c-.04-2.24-.34-4.46-.9-6.63l-.48-1.84c-.85-2.13-2.86-3.43-4.94-4.68-2.43-1.89-4.16-4.6-5.15-7.33"/>
      <path class="cls-1" d="M141.66,39.62s-.55,4.3-10.98,12.47c0,0-2.26,2.26-1.87,6.98.38,4.72.47,5.49-3.36,9.96s-4.38,6.81-4.64,8.47-1.96,1.74-2.98,3.4c-1.02,1.66-.37,2.73-.94,3.36-1.23,1.36-6.45,1.21-7.62.21-.96-.82,0-2.28,1.96-3.21s1.7-1.34,2.6-3.3c.89-1.96,2.34-2.47,3.49-4.26s3.23-5.28,3.83-8.68c.64-9.79-3.87-14.98-.34-21.62"/>
      <path class="cls-1" d="M86.01,28.22c-4.01,4.45-4.18,10.64-3.83,14.35.19,2.03-.76,3.99-2.47,5.09l-4.64,2.98c-3.07,1.25-4.46,5.46-6.46,9.4-1.47,2.37-4.29,3.89-4.26,5.44.02,2.71-1.6,3.69-2.15,5.5l-1,2.46c-.31,1.17.43,1.99,1.4,1.55l3.27-1.56c1.47-.83,1.83-1.94,1.37-3.25-.42-2.12.6-3.41,2.83-4.01.67-.19.55-3.01,3.72-5.76,1.31-1.14,3.04-4.58,5.31-5.37,3.52-.89,5.39-1.8,7.04-3.3-.95,2.72-1.72,6.07-2.43,11.33-.6,3.4-2.68,6.89-3.83,8.68-1.15,1.78-2.6,2.29-3.49,4.25-.9,1.96-.64,2.36-2.6,3.3s-2.92,2.39-1.96,3.21c1.18,1,6.39,1.15,7.62-.21.57-.63-.08-1.7.94-3.36s2.72-1.75,2.98-3.41c.25-1.66,1.5-3.61,4.31-8.78,2.57-4.76,3.31-14.75,9-15.26,4.24-.38,15.84,2.6,22.9-.53"/>
      <path class="cls-1" d="M71.42,6.19s4.81-4.99,19.87.2l-2.77,1.15s7.32,2.26,14.6,8.13l-3.96-.17,13.4,7.45s-3.02,1.87-6.64.3"/>
      <path class="cls-1" d="M67.67,7.59s-1.91-1.27-4.56-1.33c0,0,2.64,3.8,2.52,4.63-.33,2.35-.45,5.84-.13,9.16s-1.56,4.5-1.12,5.65,2.01,4.72,4.18,3.51,2.01-3.1,2.01-3.1"/>
      <path class="cls-1" d="M69.34,29.07s3.28.47,3.62-2.94c.34-3.4,6.38-3.57,6.04-10.09"/>
      <path class="cls-1" d="M79.09,19.07s5.71,3.5,4.42,13.05"/>
      <path class="cls-1" d="M68.19,25.7s-.76.09.21-1.47"/>
      <path class="cls-1" d="M68.99,17.65c.12-.92.76-2.83,2.44-3.32"/>
      <path class="cls-1" d="M70.68,14.93s.29,1.09-1.2,1.69c0,0,.24-.55.34-.72s.85-.98.85-.98Z"/>
      <path class="cls-1" d="M22.53,18.95s.23-.75.36-.9c.1-.21.67-.1.95-.09.83.05,1.89.22,2.17-.08.36-.4.27-2.41.41-2.54s.93-.46.85-.68c-.02-.07-.13-.26-.28-.51-.32-.59-.84-1.44-.84-1.44,0,0,.24-.3.21-.94-.03-.56-.27-1.89-.34-2.23,0-.05-.01-.08-.01-.08.11-.16.44-.29.71-.37h0c.21-.06.37-.1.37-.1-.01-.08-.06-.16-.13-.24-.28-.3-.91-.55-.91-.55.08-.07.14-.14.2-.21l.12-.15h0c.36-.52.32-.91.32-.91,0,0-.3.07-.75.12-.23.02-.5.04-.78.05-.35,0-.72-.01-1.06-.08h-.05c-.53-.1-1.15-.11-1.66-.09h-.14c-.52.02-.89.07-.89.07l.07-.09.47-.63s-.42.08-1.05.26l-.1.03c-.39.12-.85.27-1.35.46-.03,0-.05.02-.08.03-.5.19-.88.46-1.17.76-.07.07-.13.14-.19.21h-.01c-.41.5-.65,1.03-.9,1.42-.22.34-.38.94-.45,1.56h0c-.02.24-.03.46-.03.68,0,.4.05.78.16,1.05.04.1.09.22.15.34h0c.15.32.35.68.54,1.02l.11.2c.16.25.3.49.4.66h.01c.1.17.16.27.16.27,0,0,.01.36-.01.82,0,.65-.04,1.49-.16,1.79,0,0-.6.01-.86.33-.25.32-.33.75-.72,1.3-.38.54-3.47,2.48-5.1,2.74,0,0-1.53.38-1.95,4.31-.41,3.92-7.34,15.62-8.17,16.73,0,0,.93,1.47,2.78,1.57,0,0,8.49-10.98,9.03-13.47,0,0-1.09,13.61-3.47,18.97,1.73.1,2.97-.59,4.24-1.23,0,0-7.09,14.91-8.81,19.28-1.9,4.81-3.82,8.9-4.33,9.37-.51.46,1.35,3.69,5.9,3.14,0,0,2.81-7.06,4.55-10.77,1.75-3.7,6.81-15.7,6.81-15.7,0,0-.17,8.6-.55,10.32s-2.86,14.41-2.67,15.56,4.14.85,6.37.02c0,0,.5-5.49.95-7.79.45-2.29,1.34-5.8,1.85-11.23s3.39-10.03,3.39-13.41-.12-6.19,1.22-6.19,2.11,1.36,2.34,2.8c0,0,3.32-3.31.38-16.33s7.02-16.79,10.6-22.15c0,0-.83-1.79-2.17-2.56,0,0-7.5,5.94-12.56,10.7"/>
      <path class="cls-1" d="M1.46,43.78S.02,46.22.48,50.61c0,0,1.34.46,2.19-2.33,0,0,1.49.52,1.45-.03-.12-1.54-1.44-1.66-.85-3.49"/>
      <path class="cls-1" d="M1.26,79.61s-1.84,2.05-.21,6.43c0,0,1.28.59,1.91.68s1.52-4.31,2.32-5.65"/>
      <path class="cls-1" d="M15.06,80.82c-.52.77-1.11,1.4-1.18,3.29.56.42,1.22.66,2.07.51l.41-1.15c-.05-.06,2.12.18,3.03,1.24.6.71,6.64-.1,7.05-.1s.1-1.53.1-1.53l-6.41-2.33"/>
      <path class="cls-1" d="M23.69,20.56c3.02,2.06,1.98,6.09,1.13,10.98-.85,4.89-.6,9.7-.6,9.7-3.06.89-6.85.51-6.85.51.47-2.81-.22-18.01-.22-18.01,0,0,.06-2.3-1.44-3.54"/>
      <path class="cls-2" d="M20.81,21.36l-2.65-.68c-.21-.05-.4.14-.34.35.25.91.83,2.89,1.25,3.28.54.51,1.73-2.96,1.73-2.96Z"/>
      <path class="cls-2" d="M21.16,21.23s.57-1.02,1.53-1.59,1.21,2.29,1.21,2.96-2.74-1.37-2.74-1.37Z"/>
      <path class="cls-1" d="M17.95,17.93s1.34,1.85,4.56,1.02"/>
      <path class="cls-1" d="M40.13,3.83s1.38-2.32,3.85-3.28c1.73-.67,3.1.71,3.11,1.75,0,.49-.28.93-.73,1.13-.7.31-1.81.67-2.75.35l-2.07,1.35"/>
      <path class="cls-1" d="M70.97,55.19c-3.1-2.76-7.11-5.64-12.84-8.84"/>
      <path class="cls-1" d="M85.57,70.59c3.27,2.07,6.07,2.69,6.07,2.69,0,0-2.09,1.72-8.02,5.04-1.11.62-2.32,1.03-3.57,1.28"/>
      <path class="cls-1" d="M44.76,3.89c-.01.58-.17,1.33-.72,1.94-1.06,1.2-8.98,9.94-9.74,18.62-.77,8.68,4.16,11.89.76,18.32-3.86,7.31-6.22,12.28-7.06,21-.98,10.21-3.09,13.21-3.92,14.81.86.38,5.59,1.05,7.79,3.25,3.78,3.78,8.48,4.01,12.28,1.79,2.52-1.47,4.45-1.97,8.87-1.79,6.03.26,7.53-3.12,11.81-3.06,2.01.03,4.97.67,8.15.98"/>
      <path class="cls-1" d="M74.9,59.13c1.84,2.04,3.38,4.09,4.99,6.24.69.92,1.43,1.75,2.19,2.47"/>
      <path class="cls-1" d="M41.33,13.96s2.88-.41,4.14-.24c1.69.22,2.55,2.1,2.87,2.95s1.18,6.15,2.11,8.96c.93,2.81,2.16,4,2.16,4,0,0-1.82.89-3.89-1.63,0,0,0,3.61-1.91,4.76"/>
      <path class="cls-1" d="M46.85,1.37s1.71.45,1.77,1.76c.06,1.31-1.24,2.87-3.41,4.91s-6.1,8.77-6.44,14.09c0,0,1.07-.94,2.21-1.38s1.47-2.44,4.74-4.48c0,0,.52,1.11.16,2.13-.14.87.15,1.17.36,1.82,0,0-.4.3-.93.49,0,0-.13,1.21-.72,1.34s-1.81-.37-1.81-.37c0,0-.48,1.28.12,2.39,0,0,1.88.16,3.16,1.31s1.05,3.81.91,5.37c-.26,2.85-1.62,4.21,0,5.49,2.11,1.67,5.65,5.29,6.7,6.53s3.96,1.15,4.47,2.39c.51,1.24-.55,1.69-.55,1.69-1.31-.03-3.54-.89-4.85-2.43s-5.17-3.93-6.61-4.98c-1.44-1.05-2.81-2.07-2.65-4.44s1.69-6.51-.29-7.69c-1.98-1.18-4.09,1.4-4.09,1.4-3.16-3.93-4.6-.51-4.6-.51"/>
      <polygon class="cls-3" points="38.79 21.76 39.56 18.4 40.88 14.64 41.43 13.98 43.26 13.79 45.52 13.79 47.16 14.62 48.24 16.59 48.9 19.17 49.33 21.81 50.24 25 51.09 27.21 52.28 29.48 52.16 29.64 51.19 29.57 50.15 29.16 48.73 27.98 48.4 29.7 47.73 31.69 46.85 32.6 46.8 31.97 47.15 29.8 47.03 28.26 46.79 26.6 45.78 25.07 44.26 24.35 42.9 24.06 42.62 22.88 42.85 21.65 43.9 22.03 44.91 21.97 45.33 20.76 46.12 20.37 46.05 19.64 45.95 18.32 46.07 17.21 45.84 16.35 44.89 16.68 43.48 17.94 42.21 19.31 41.5 20.34 40.72 20.83 39.21 21.72 38.74 22 38.79 21.76"/>
      <path class="cls-3" d="M106.33,44.62h-.01c-.36-.38-8.46-8.82-4.75-11.57,2.32-1.73,4.31,1.07,4.76,1.77.44-.7,2.43-3.5,4.76-1.77,3.71,2.75-4.4,11.19-4.76,11.57Z"/>
      <path class="cls-3" d="M25.93,9.59s-.32,1.12-1.34,1.12-2.73,2.35-2.76,2.86l-.43.23s-.35-.89-.86-.89-.99,1.05-1.05,1.37-1.18,2.07-1.34,2.11l-.21-1.46-1-1.59-.42-1.93.34-1.53,1.18-1.99,1.74-1.1,1.85-.43-.22.55,1.68.03,2.39.18,1.05-.14-.15.87-.23.3.86.55-.31.44-.77.46Z"/>
      <circle class="cls-3" cx="22.47" cy="26.11" r=".57"/>
      <circle class="cls-3" cx="22.47" cy="31.85" r=".57"/>
      <circle class="cls-3" cx="22.47" cy="37.15" r=".57"/>
      <g>
        <path class="cls-3" d="M29.39,75.25h.01c1.44-.14,2.59-1.27,2.74-2.71.15,1.43,1.3,2.57,2.74,2.71h.01-.01c-1.44.13-2.59,1.27-2.74,2.7-.15-1.43-1.29-2.57-2.74-2.7h-.01Z"/>
        <path class="cls-3" d="M32.14,78h0c-.14-1.46-1.27-2.6-2.71-2.75,1.43-.15,2.57-1.3,2.71-2.74h0s0,0,0,0c.13,1.44,1.27,2.59,2.7,2.74-1.43.15-2.57,1.29-2.7,2.74h0Z"/>
      </g>
      <g>
        <path class="cls-3" d="M35.35,80.12h0c.64-.06,1.16-.57,1.22-1.21.07.64.58,1.15,1.22,1.21h0,0c-.64.06-1.16.57-1.22,1.21-.07-.64-.58-1.15-1.22-1.21h0Z"/>
        <path class="cls-3" d="M36.58,81.35h0c-.06-.65-.57-1.16-1.21-1.23.64-.07,1.15-.58,1.21-1.22h0s0,0,0,0c.06.64.57,1.16,1.21,1.22-.64.07-1.15.58-1.21,1.22h0Z"/>
      </g>
      <g>
        <path class="cls-3" d="M57.82,53.32h0c.98-.09,1.75-.86,1.86-1.83.1.97.88,1.74,1.86,1.83h0,0c-.98.09-1.75.86-1.86,1.83-.1-.97-.88-1.75-1.86-1.83h0Z"/>
        <path class="cls-3" d="M59.68,55.18h0c-.09-.99-.86-1.76-1.83-1.86.97-.1,1.74-.88,1.83-1.86h0s0,0,0,0c.09.98.86,1.75,1.83,1.86-.97.1-1.75.88-1.83,1.86h0Z"/>
      </g>
      <g>
        <path class="cls-3" d="M36.5,47.57h0c.64-.06,1.16-.57,1.22-1.21.07.64.58,1.15,1.22,1.21h0,0c-.64.06-1.16.57-1.22,1.21-.07-.64-.58-1.15-1.22-1.21h0Z"/>
        <path class="cls-3" d="M37.73,48.8h0c-.06-.65-.57-1.16-1.21-1.23.64-.07,1.15-.58,1.21-1.22h0s0,0,0,0c.06.64.57,1.16,1.21,1.22-.64.07-1.15.58-1.21,1.22h0Z"/>
      </g>
      <path class="cls-3" d="M38.57,21.51c-.02.41-.04.27-.12,1.1-.1,1.02-.6,1.63-2.01,2.37,0,0,2.92.87,3.99-1.69.62-1.5.65-1.67,1.68-3.22"/>
      <path class="cls-3" d="M71.79,6.28l.67-.77,2.78-1.02,4.05-.35,3.73.29,4.56.96,3.1.89-2.23,1.05,1.98.93,4.76,2.27,3.56,2.15,3.53,2.49s-.4.26-.45.26-2.41-.11-2.41-.11l2.47,1.59,4.79,2.84,5.62,3.19-3.16.83-3.22-.32-5.71-4.44-6.19-4.63-5.94-4.37-3.29-1.88-5.97-1.34-4.91-.06-2.1-.44Z"/>
      <path class="cls-3" d="M65.81,11.18c-1.31-.82-3.49,1.03-3.49,1.03.12-1.97,2.38-3.29,2.38-3.29l.68.72.43,1.54Z"/>
      <path class="cls-3" d="M64.92,10.55s-1.03.58-.9,2.01c0,0,1.11-1.44,1.68-1.23s-.16-1.44-.16-1.44l-.62.66Z"/>
      <path class="cls-3" d="M143.03,32.84s.24,1.19,1.19,1.59c0,0-.4.55-2.38.47-.01.53,1.47,1.28,2.57,1-.77.19-1.55,1.67-.67,2.42.44-.25.64-.33.96-.12l2.62.1,1.4,1.32,1,2.51.53,3.04.04,3.09.89,4.83,1.79,3.04,1.06.66-.6-2.74-.38-3.13,1.06-2.64.66,3.34.94,3.77,1.85,2.57,2.43,1.53,3.04.26-.77-.74-2.94-3.11-1.17-3.36.02-4.4.53-3.81-.23-4.66-1.43-3.57-1.66-1.96-4.32-1.28-4.21-.26-2.66.6-1.18-.35Z"/>
    </g>
  </g>
</svg>