<?xml version="1.0" encoding="UTF-8"?>
<svg id="Layer_2" data-name="Layer 2" xmlns="http://www.w3.org/2000/svg" viewBox="0 0 141.24 87.23">
  <defs>
    <style>
      .cls-1 {
        stroke-linecap: round;
        stroke-linejoin: round;
      }

      .cls-1, .cls-2 {
        fill: none;
        stroke: #7c4432;
        stroke-width: .75px;
      }

      .cls-3 {
        fill: #7c4432;
      }

      .cls-2 {
        stroke-miterlimit: 10;
      }
    </style>
  </defs>
  <g id="Layer_1-2" data-name="Layer 1">
    <g>
      <g>
        <path class="cls-2" d="M141.15,82.98c-32.51,7.49-53.66,1.82-53.66,1.82-19.24-4.92-20.58-19.38-21.79-31.93-.56-5.89-2.09-11.65-4.68-16.98C50.68,14.62,30.18,18.47,20.9,15.25,5.3,12.38,6.22.62,6.22.62c6.38,3.59,8.07,7.09,10.38,10.69.98,1.53,2.48,3.31,4.3,3.95"/>
        <path class="cls-2" d="M77.79,80.69c-.96-1.21-3.2-4.99-1.93-12.75.84-5.23-3.59-10.88,2.98-16.92,3.6,11.46-1.79,11.71-2.98,16.92"/>
        <path class="cls-2" d="M68.08,67.34c-4.29-3.49-12.23-2.34-15.43,3.81,0,0,3.94,1.55,6.56-2.15,1.46-2.06,2.43-2.68,4.17-3.51"/>
        <path class="cls-2" d="M53.12,65.71c-6.08,1.77-6.33-1.06-12.88,2.08,2.11,1.08,5.05,4.57,11.31-.9.5-.43,1.03-.82,1.57-1.18,4.08-2.6,9.33-2.78,13.43-.01.6.4,1.07.77,1.37,1.01"/>
        <path class="cls-2" d="M67.49,66.58c-.05-.11-.09-.21-.14-.33-1.18-2.7-3.34-6.64-7.02-10.61-2.86-3.08-6.64-6.18-11.6-8.73"/>
        <path class="cls-2" d="M42.49,44.25c-1.38-.48-2.83-.91-4.36-1.3-9.15-2.33-14.77-2.12-18.25-.61-6.24,2.71-5.66,9.63-6.38,13.77-1.12,6.47-9.04,8.26-9.04,8.26,2.21-2.98.82-8.34,9.79-14.17"/>
        <path class="cls-2" d="M19.88,42.34c-2.52-.4-6.68.44-10.6,2.33-4.51,2.16-8.71-.27-8.71-.27,0,0,1.51-1.87,5.87-2.77,4.35-.89,7.5.67,9.75.8"/>
        <path class="cls-2" d="M66.03,56.07c.83-.71,1.65-1.84,2.41-3.27.98-1.91,1.84-4.32,2.34-6.89.96-4.9,5.42-6.82,5.42-6.82,0,0,.6,2.34-1.29,6.36-1.87,4.03-5.01,5.62-6.47,7.35"/>
        <path class="cls-2" d="M42.86,45.03c-.74,0-1.38.09-1.97.25-2.49.35-1.87.08-5.75.6-5.7.77-8.24,6.46-8.24,6.46,0,0,4.47,1.18,8.03-2.37,2.39-2.37,3.76-4.08,5.96-4.69"/>
        <path class="cls-2" d="M66.03,41.72c.74-2.4.73-1.73,1.9-5.46,1.72-5.48-2.35-10.2-2.35-10.2,0,0-2.96,3.54-1.26,8.28,1.13,3.17,2.1,5.13,1.71,7.39-.19,1.09-.68,2.23-1.61,3.61"/>
        <path class="cls-2" d="M60.31,55.71c3.17-8.96-1.36-12.37-5.08-18.9-2.29,12.37,4.95,11.61,5.08,18.78"/>
        <path class="cls-2" d="M49.77,22.81c-3.53-1.21-6.46-1.27-10.74-.23-1.31.32-2.73.73-4.34,1.25-6.9,2.22-11.37-2.35-11.37-2.35,0,0,2.26-1.05,6.07-1,3.75.06,7.43,1.72,9.64,2.09"/>
        <line class="cls-2" x1="43.52" y1="19.68" x2="43.53" y2="19.68"/>
        <path class="cls-2" d="M34.56,13.77c-.56-.89-1.06-1.91-1.5-3.08C30.29,3.36,23.93,1.33,23.93,1.33c0,0-.03,2.16,1.7,5.13,1.99,3.43,3.72,3.31,8.92,7.31,1.52,2.48,3.37,3.94,5.12,4.8"/>
        <path class="cls-2" d="M56.64,25.77c.73-12.16-6.14-14.93-6.14-14.93-.02.18-.56,4.86,1.15,7.99,2.1,3.86,4.26,4.35,4.99,6.93.04.14.08.28.11.43.35,1.72.95,3.53,1.39,4.74h0"/>
      </g>
      <g>
        <path class="cls-2" d="M47.37,48.28c-2.07.05-3.45-1.19-4.51-3.25-.13-.25-.26-.51-.37-.78-.73-1.62-1.3-3.64-1.88-5.89-.84-3.26-1.67-6.98-2.92-10.64l2.6-.85.29-.09"/>
        <path class="cls-2" d="M40.29,26.87l2.89-.94c3.16,10.2,9.2,18.92,4.3,22.31"/>
        <line class="cls-2" x1="47.36" y1="48.05" x2="52.03" y2="62.36"/>
        <line class="cls-1" x1="48.27" y1="63.43" x2="55.68" y2="61.01"/>
        <path class="cls-2" d="M40.61,38.36c.06-.77.48-1.74,1.94-2.5,1.9-.99,2.71-2.58,2.8-3.94"/>
        <circle class="cls-3" cx="46.15" cy="41.06" r=".42"/>
        <g>
          <path class="cls-3" d="M44.11,44.79h0c.77-.34,1.2-1.17,1.02-1.99.34.76,1.18,1.18,2,1h0s0,0,0,0c-.77.33-1.2,1.16-1.02,1.98-.34-.76-1.18-1.19-2-1h0Z"/>
          <path class="cls-3" d="M46.13,45.81h0c-.33-.78-1.17-1.21-1.99-1.03.76-.34,1.18-1.18,1-2h0s0,0,0,0c.33.77,1.16,1.2,1.98,1.02-.76.34-1.19,1.18-1,2h0Z"/>
        </g>
      </g>
    </g>
  </g>
</svg>