<?xml version="1.0" encoding="UTF-8"?>
<svg id="Layer_2" data-name="Layer 2" xmlns="http://www.w3.org/2000/svg" viewBox="0 0 146.08 97.46">
  <defs>
    <style>
      .cls-1 {
        stroke-linecap: round;
        stroke-linejoin: round;
      }

      .cls-1, .cls-2 {
        fill: none;
        stroke: currentColor;
        stroke-width: .75px;
      }

      .cls-3 {
        fill: currentColor;
      }

      .cls-2 {
        stroke-miterlimit: 10;
      }
    </style>
  </defs>
  <g id="Layer_1-2" data-name="Layer 1">
    <g>
      <g>
        <path class="cls-2" d="M.12,94.7c31.15,10.72,43.81-18.13,43.81-18.13,9.47-17.46,23.82-15.23,36.28-13.34,5.85.89,11.81.82,17.6-.39,23.16-4.84,24.43-25.66,29.82-33.88,6.6-14.43,17.78-10.66,17.78-10.66-5.04,5.31-8.85,6.09-12.9,7.45-1.73.58-3.82,1.6-4.87,3.2"/>
        <path class="cls-2" d="M50.28,68.16c1.41-.64,5.62-1.89,12.83,1.24,4.87,2.09,11.43-.83,15.68,7.02-11.99.7-10.92-4.6-15.68-7.02"/>
        <path class="cls-2" d="M65.6,62c4.43-3.31,5.26-11.29.07-15.9,0,0-2.46,3.44.49,6.88,1.65,1.92,2.01,3.01,2.38,4.9"/>
        <path class="cls-2" d="M70.83,47.89c-.23-6.33,2.57-5.88,1.12-13-1.56,1.78-5.67,3.78-1.89,11.19.3.59.55,1.2.76,1.81,1.53,4.59.42,9.72-3.26,13.02-.54.48-1.01.85-1.31,1.08"/>
        <path class="cls-2" d="M66.48,61.61c6.41-1.01,20.63-5.2,30.08-22.7,12.52-23.18-.76-24.44-6.75-27.1s-5.8-10.79-5.8-10.79c2.35,2.87,7.89,2.84,11.35,12.96"/>
        <path class="cls-2" d="M101.61,21.36c1.01-2.35,1.2-6.58.33-10.85-.99-4.9,2.39-8.38,2.39-8.38,0,0,1.45,1.92,1.25,6.37-.2,4.43-2.48,7.11-3.16,9.26"/>
        <path class="cls-2" d="M77.04,62.76c.48.98,1.38,2.05,2.58,3.13,1.61,1.42,3.74,2.84,6.11,3.95,4.52,2.13,5.29,6.92,5.29,6.92,0,0-2.41,0-5.86-2.8-3.45-2.8-4.23-6.24-5.55-8.07"/>
        <path class="cls-2" d="M92.65,45.09c.71-1.64,1-2.92.98-4.07-.05-2.29-1.38-4.03-3.1-6.93-2.57-4.33-.34-8.37-.34-8.37,0,0,4.91,3.85,4.26,9.57-.44,3.89-.56,3.22-.82,5.72"/>
        <path class="cls-2" d="M90.94,66.27c2.15,1.3,1.49,1.13,4.83,3.18,4.9,3.01,10.47.21,10.47.21,0,0-2.71-3.74-7.72-3.25-3.35.32-5.48.78-7.58-.14-1.01-.45-1.99-1.2-3.11-2.44"/>
        <path class="cls-2" d="M78.78,57.3c7.92,5.26,12.33,1.7,19.57-.31-11.43-5.24-12.47,1.97-19.45.34"/>
        <path class="cls-2" d="M113.25,55.12c2.03-3.13,2.8-5.95,2.84-10.36.01-1.34-.04-2.82-.16-4.51-.46-7.23,5.05-10.45,5.05-10.45,0,0,.47,2.45-.52,6.13-.97,3.62-3.48,6.79-4.38,8.84"/>
        <line class="cls-2" x1="117.81" y1="49.82" x2="117.81" y2="49.83"/>
        <path class="cls-2" d="M125.74,42.57c1-.32,2.11-.56,3.35-.71,7.78-.9,11.3-6.56,11.3-6.56,0,0-2.09-.55-5.39.4-3.81,1.09-4.11,2.8-9.27,6.87-2.77.87-4.64,2.3-5.91,3.79"/>
        <path class="cls-2" d="M108.71,61.06c11.61,3.68,15.97-2.31,15.97-2.31-.17-.06-4.57-1.73-8.03-.84-4.25,1.09-5.26,3.07-7.94,3.15-.14,0-.29,0-.44,0-1.76-.08-3.65.06-4.93.19h0"/>
      </g>
      <g>
        <path class="cls-2" d="M113.75,18.1l-2.94-.78c-2.58,10.36-8.12,19.41-3.02,22.52"/>
        <path class="cls-2" d="M113.46,18.02l2.94.78c-2.88,10.28-2.53,20.89-8.5,21.07"/>
        <line class="cls-2" x1="107.9" y1="39.65" x2="104.06" y2="54.2"/>
        <line class="cls-1" x1="100.33" y1="53.05" x2="107.87" y2="55.05"/>
        <path class="cls-2" d="M107.49,27.84c.47-.62,1.35-1.2,2.99-1.05,2.13.2,3.68-.7,4.49-1.8"/>
        <circle class="cls-3" cx="110.68" cy="33.12" r=".42"/>
        <g>
          <path class="cls-3" d="M106.94,35.14h0c.83.14,1.64-.33,1.94-1.11-.13.83.35,1.63,1.13,1.92h0s0,0,0,0c-.83-.14-1.64.33-1.94,1.11.13-.83-.34-1.64-1.14-1.92h0Z"/>
          <path class="cls-3" d="M108.08,37.09h0c.14-.84-.33-1.65-1.11-1.94.83.13,1.63-.35,1.92-1.13h0s0,0,0,0c-.14.83.33,1.64,1.11,1.94-.83-.13-1.64.34-1.92,1.14h0Z"/>
        </g>
      </g>
    </g>
  </g>
</svg>