<?xml version="1.0" encoding="UTF-8"?>
<svg id="Layer_2" data-name="Layer 2" xmlns="http://www.w3.org/2000/svg" viewBox="0 0 50.86 66.21">
  <defs>
    <style>
      .cls-1 {
        fill: none;
        stroke: #7c4432;
        stroke-linecap: round;
        stroke-miterlimit: 10;
        stroke-width: .75px;
      }
    </style>
  </defs>
  <g id="Layer_1-2" data-name="Layer 1">
    <g>
      <g>
        <path class="cls-1" d="M24.82,15.07c-1.32,1.23-2,1.55-2,1.55-.51-4.51,2.6-9.36,2.6-9.36-.99.1-1.45.46-2.12.87-.36-2.12,2.49-4.31,4.29-4.78,2.03-.54,3.01-.33,3.01-.33.13-.27.68-1.72,1.52-1.98.87-.47,1.92-.58,1.92-.58,0,0-.64,1.2-.25,2.36.43,1.32,1.06.94,1.54,1.51.4.48.56,1.39.78,1.95.23.62,2.2,2.52,2.7,2.87.36.25.59.65.63,1.09.07.79-.02,1.95-1.14,2.2-1.46.31-1.22-.66-1.58-.85-.13-.06-2.5-.78-2.68-.8-.5-.07-.91.15-1.41.1-.04.26.03.46.11.69.26.83.93,2.44,1.32,3.23.85,1.72,2.11,3.32,3.78,4.29.4.06,2.01-1.46,2.47-1.68,1.62-.78,3.57.13,5.27.26.55.04.64-.18,1.36,0,.99.24.52.51,1.01.88.1.07,1.13.59,1.61,1.1.33.36,1.28,2.02.81,2.36-.19.13-.96.24-1.23.26-1.82.12-1.94-.38-1.76-2.1-.9-1.11-2.16-.15-4.28-1.06-.25-.11-1.89,1.45-2.12,1.75-.41.52-.54,1.1-.89,1.57-.27.38-1.54,1.06-.84,1.62,1.17.93,4.04.83,5.34,1.28,2.02.72.35,3.04.18,4.41-.11.93.19,2.32-.36,3.11-.17.24-.61.3-.79.66-.47.96-.47,4.12-2.37,2.88-1.11-.73-.45-2.51.54-3.14.21-.13.64-.07.79-.26.18-.22-.17-.81-.06-1.28.12-.57.86-1.18.97-1.67.15-.65.21-2.26-.61-2.48-1.68.24-3.54.81-5.24.86-.47.02-.59-.12-.95-.36-.96,7.87-6.7,10.78-7.69,11.68.54,1.69,1.45,3.58,1.19,5.41-.07.48-.36.73-.36,1.42,0,.97.41,1.92.37,2.97-.05,1.13-.58,2.91-1.05,3.95-.05.12-.13.24-.18.35l-.35.7c-.19.39-.61.79-.88,1.41-.17.4-.48.92-.53,1.31-.07.61.46,3.96.72,4.52.11.24.68.37.91.88.28.64.49,1.65.73,2.43.08.25-.04.52-.29.6-.77.24-2.32.12-2.99-.25-.2-.11-.28-.33-.27-.55.04-.58-.18-1.14-.21-1.66-.05-1.14.17-1.39-.22-2.76-.34-1.16-1.67-3.68-1.71-4.63-.04-1.14,1.57-1.69,1.54-3.09-.04-1.07-.94-2.99-1.96-3.47-1.86,2.73-4.99,4.67-4.93,7.97-.07.62.68,3.96.94,4.52.11.24.68.37.91.88.28.64.49,1.65.73,2.43.08.25-.04.52-.29.6-.77.24-2.32.12-2.99-.25-.2-.11-.28-.33-.27-.55.04-.58-.18-1.14-.21-1.66-.05-1.14.17-1.39-.22-2.76-.13-.47-.61-2.79-.79-3.3-.67-1.81-1.88-2.84-.1-4.56.93-.91,1.66-.47,1.85-2.19.05-.48.08-1.82,0-2.27-.1-.48-.82-.92-1.12-1.34-.91-1.22-1.52-2.6-1.89-4.09-.36-1.68-.03-3.33-.03-3.33-1.53-.51-2.74.08-3.62,1.78-.7,1.81-.56,3.32-.64,5.89-.19,2.54-.89,4.7-2.91,5.83,1.44-2.67,1.01-4.57.09-6.54-.53,5.92-2.52,9.14-6.72,8.32,4.97-2.24,3.93-7.55,3.77-8.78-.11-.86-1.32-7.03,1.93-9.3,3.25-2.27,8.78-.92,8.78-.92.51-.88,1.03-1.77,1.73-2.51,1.18-1.26,2.56-2.32,3.79-3.53,1.08-1.06,1.92-2.01,2.63-3.34.29-.55.73-1.47.87-1.92.73-3.17,1.33-6.12.09-9.33Z"/>
        <path class="cls-1" d="M33.73,2.36s.3-.68,1.64-1c0,0-.83,1.7-.74,2.41"/>
      </g>
      <path class="cls-1" d="M23.44,49.31c.32-.71,2.43-1.59,1.87-5.8,0,0-.64-2.19,3.67-3.75"/>
    </g>
  </g>
</svg>