<?xml version="1.0" encoding="UTF-8"?>
<svg id="Layer_2" data-name="Layer 2" xmlns="http://www.w3.org/2000/svg" viewBox="0 0 541.8 323.61">
  <defs>
    <style>
      .cls-1, .cls-2, .cls-3 {
        fill: none;
      }

      .cls-1, .cls-2, .cls-3, .cls-4 {
        stroke: #7c4432;
        stroke-width: .75px;
      }

      .cls-1, .cls-2, .cls-4 {
        stroke-linecap: round;
      }

      .cls-1, .cls-3, .cls-4 {
        stroke-miterlimit: 10;
      }

      .cls-2 {
        stroke-linejoin: round;
      }

      .cls-5, .cls-4 {
        fill: #7c4432;
      }
    </style>
  </defs>
  <g id="Layer_1-2" data-name="Layer 1">
    <g>
      <g>
        <path class="cls-2" d="M482.02,35.29c.77.72,2.56,2.15,1.14,4.17"/>
        <g>
          <path class="cls-2" d="M488.69,66.46s.01,0,.02,0c4.11-2.21,2.03-4.67,6.74-8.57,3.1-2.3,3.41-6.77,2.7-11.41-.65-4.27,1.28-4.19,1.28-4.19.18,0,.36-.02.53-.04.03,0,.05,0,.07,0,1-.1,1.7-.43,1.79-1.25.04-.37-.02-.67-.11-.9-.13-.34-.47-.55-.84-.54l-2.51.12c-.87.05-1.61.74-1.6,1.61.1,8.55-1.8,23.23-13.61,18.76l-.05-.02c-11.81-4.47-3.52-16.74,2.23-23.07.59-.64.48-1.66-.14-2.27l-1.79-1.75c-.27-.26-.66-.32-.98-.15-.22.11-.46.31-.68.61-.57.8,0,1.66.94,2.55,0,0,1.49,1.22-1.82,3.99-3.61,3.01-6.34,6.56-5.54,10.34.94,6.04-2.24,6.5-.62,10.9t0,.01"/>
          <path class="cls-2" d="M481.62,34.66c2.18,3.21-18.42,15.63-6.49,26.92,3.42,3.24,8.04,5.03,12.76,4.92.28,0,.55-.02.81-.04,15.65-1.08,8.66-23.49,12.38-24.43"/>
          <path class="cls-2" d="M500.35,42.23c-1.05.03-3.34-.09-3.62,2.37"/>
        </g>
      </g>
      <g>
        <circle class="cls-5" cx="482.21" cy="62.47" r=".91"/>
        <g>
          <circle class="cls-5" cx="477.7" cy="59.97" r=".91"/>
          <circle class="cls-5" cx="487.24" cy="63.58" r=".91"/>
        </g>
      </g>
    </g>
    <g>
      <path class="cls-2" d="M57.99,35.29c-.77.72-2.56,2.15-1.14,4.17"/>
      <g>
        <path class="cls-2" d="M65.31,61.17s0,0,0-.01c1.63-4.4-1.56-4.86-.62-10.9.8-3.78-1.93-7.33-5.54-10.34-3.31-2.77-1.82-3.99-1.82-3.99.94-.89,1.51-1.75.94-2.55-.22-.3-.46-.49-.68-.61-.32-.17-.72-.1-.98.15l-1.79,1.75c-.62.61-.73,1.63-.14,2.27,5.74,6.33,14.04,18.6,2.23,23.07l-.05.02c-11.81,4.47-13.71-10.21-13.61-18.76.01-.87-.73-1.57-1.6-1.61l-2.51-.12c-.37-.02-.71.19-.84.54-.09.23-.14.53-.11.9.09.82.8,1.15,1.79,1.25.02,0,.04,0,.07,0,.16.02.35.04.53.04,0,0,1.93-.07,1.28,4.19-.71,4.64-.4,9.11,2.7,11.41,4.72,3.9,2.64,6.35,6.74,8.57,0,0,.01,0,.02,0"/>
        <path class="cls-2" d="M38.94,42.03c3.71.95-3.27,23.35,12.38,24.43.27.02.54.03.81.04,4.71.12,9.33-1.67,12.76-4.92,11.93-11.3-8.68-23.71-6.49-26.92"/>
        <path class="cls-2" d="M39.66,42.23c1.05.03,3.34-.09,3.62,2.37"/>
      </g>
    </g>
    <g>
      <circle class="cls-5" cx="57.81" cy="62.47" r=".91"/>
      <g>
        <circle class="cls-5" cx="62.31" cy="59.97" r=".91"/>
        <circle class="cls-5" cx="52.78" cy="63.58" r=".91"/>
      </g>
    </g>
    <g>
      <g>
        <g>
          <path class="cls-2" d="M451.47,288.06c1.31-.41,4.06-1.54,5.46,1.37"/>
          <g>
            <path class="cls-2" d="M491.05,300.33s0-.02.01-.03c.1-6.07-4-5.27-5.42-13.1-.64-4.98-5.51-8.17-11.22-10.32-5.25-1.97-3.94-4.11-3.94-4.11.11-.21.21-.42.29-.62.02-.03.03-.06.04-.09.52-1.19.6-2.2-.27-2.83-.4-.28-.77-.41-1.09-.46-.47-.07-.92.18-1.14.61l-1.46,2.93c-.5,1.02-.19,2.3.81,2.84,9.75,5.33,25.19,16.82,12.6,27.36l-.06.05c-12.59,10.54-21.2-6.66-24.73-17.2-.35-1.07-1.57-1.6-2.66-1.29l-3.13.92c-.46.14-.78.54-.8,1.02-.01.32.05.71.26,1.16.54,1.16,1.88,1.07,3.49.56,0,0,2.33-.91,3.36,4.6,1.11,6,3.4,11.35,8.19,12.86,7.45,2.78,5.94,6.68,11.96,7.64t.02,0"/>
            <path class="cls-2" d="M450.5,288.12c5.03-.43,5.99,30.82,26.38,24.49,5.85-1.82,10.82-5.91,13.69-11.33.17-.32.33-.64.47-.95,8.73-18.42-21.1-24.76-19.82-29.58"/>
            <path class="cls-2" d="M471.01,271.7c-.64,1.21-2.23,3.73.39,5.61"/>
          </g>
        </g>
        <g>
          <circle class="cls-5" cx="482.4" cy="305.14" r="1.19"/>
          <g>
            <circle class="cls-5" cx="476.69" cy="308.65" r="1.19"/>
            <circle class="cls-5" cx="486.85" cy="300.14" r="1.19"/>
          </g>
        </g>
      </g>
      <g>
        <g>
          <path class="cls-2" d="M88.54,288.06c-1.31-.41-4.06-1.54-5.46,1.37"/>
          <g>
            <path class="cls-2" d="M63.86,312.82s0,0,.02,0c6.02-.95,4.51-4.86,11.96-7.64,4.79-1.5,7.08-6.85,8.19-12.86,1.03-5.51,3.36-4.6,3.36-4.6,1.61.5,2.95.6,3.49-.56.2-.44.27-.83.26-1.16-.02-.47-.34-.88-.8-1.02l-3.13-.92c-1.09-.32-2.31.21-2.66,1.29-3.53,10.54-12.14,27.75-24.73,17.2l-.06-.05c-12.59-10.54,2.85-22.04,12.6-27.36.99-.54,1.31-1.82.81-2.84l-1.46-2.93c-.22-.43-.67-.68-1.14-.61-.32.05-.69.18-1.09.46-.87.63-.79,1.63-.27,2.83.01.03.02.05.04.09.08.2.18.42.29.62,0,0,1.31,2.14-3.94,4.11-5.71,2.15-10.58,5.34-11.22,10.32-1.42,7.83-5.53,7.03-5.42,13.1,0,0,0,.02.01.03"/>
            <path class="cls-2" d="M68.78,270.75c1.29,4.81-28.54,11.15-19.82,29.58.15.31.3.63.47.95,2.87,5.42,7.84,9.51,13.69,11.33,20.39,6.33,21.35-24.92,26.38-24.49"/>
            <path class="cls-2" d="M69.01,271.7c.64,1.21,2.23,3.73-.39,5.61"/>
          </g>
        </g>
        <g>
          <circle class="cls-5" cx="57.62" cy="305.14" r="1.19"/>
          <g>
            <circle class="cls-5" cx="63.32" cy="308.65" r="1.19"/>
            <circle class="cls-5" cx="53.16" cy="300.14" r="1.19"/>
          </g>
        </g>
      </g>
    </g>
    <g>
      <path class="cls-3" d="M302.13,48.6l-4.89,2.14c7.77,17.06,10.04,35.55,20.44,34.25"/>
      <path class="cls-3" d="M301.65,48.82l4.89-2.14c7.28,17.28,19.33,31.48,11.33,38.24"/>
      <line class="cls-3" x1="317.64" y1="84.61" x2="328.24" y2="108.81"/>
      <line class="cls-2" x1="321.87" y1="111.31" x2="334.4" y2="105.81"/>
      <path class="cls-3" d="M304.18,68.84c-.03-1.36.54-3.12,2.96-4.71,3.14-2.06,4.29-4.98,4.21-7.37"/>
      <circle class="cls-5" cx="314.32" cy="72.6" r=".74"/>
      <g>
        <path class="cls-5" d="M311.4,79.47h.01c1.29-.72,1.9-2.25,1.45-3.65.73,1.28,2.26,1.87,3.66,1.41h.01s0,0-.01,0c-1.29.71-1.9,2.24-1.45,3.64-.73-1.28-2.26-1.87-3.66-1.4h-.01Z"/>
        <path class="cls-5" d="M315.09,80.91h0c-.72-1.3-2.24-1.91-3.64-1.46,1.28-.73,1.87-2.26,1.41-3.66h0s0,0,0,0c.71,1.29,2.24,1.9,3.64,1.45-1.28.73-1.87,2.26-1.4,3.66h0Z"/>
      </g>
    </g>
    <g>
      <path class="cls-3" d="M378.45,154.95l-3.84-1.17c-3.92,13.55-11.69,25.21-5.12,29.57"/>
      <path class="cls-3" d="M378.06,154.83l3.84,1.17c-4.31,13.43-4.39,27.44-12.27,27.39"/>
      <line class="cls-3" x1="369.66" y1="183.1" x2="363.85" y2="202.11"/>
      <line class="cls-2" x1="358.99" y1="200.41" x2="368.83" y2="203.42"/>
      <path class="cls-3" d="M369.7,167.5c.65-.79,1.84-1.51,4-1.23,2.8.37,4.89-.74,6.01-2.15"/>
      <circle class="cls-5" cx="373.65" cy="174.62" r=".56"/>
      <g>
        <path class="cls-5" d="M368.61,177.11h0c1.09.23,2.18-.35,2.61-1.37-.21,1.08.38,2.17,1.4,2.6h0s0,0,0,0c-1.08-.23-2.18.35-2.61,1.37.21-1.08-.37-2.18-1.4-2.59h0Z"/>
        <path class="cls-5" d="M370.02,179.74h0c.22-1.1-.35-2.19-1.37-2.62,1.08.21,2.17-.38,2.6-1.4h0s0,0,0,0c-.23,1.08.35,2.18,1.37,2.61-1.08-.21-2.18.37-2.59,1.4h0Z"/>
      </g>
    </g>
    <path class="cls-3" d="M537.97,291.28c18.41-65.54-42.63-88.21-42.63-88.21-37.14-17.46-34.25-47.33-31.84-73.25,1.14-12.17.28-24.46-2.9-36.27-12.74-47.21-55.85-47.35-73.44-57.48-30.55-11.89-24.1-35.4-24.1-35.4,11.55,9.77,13.63,17.53,16.91,25.73,1.4,3.49,3.75,7.69,7.19,9.68"/>
    <path class="cls-3" d="M477.24,190.96c-1.48-2.84-4.56-11.36,1.03-26.63,3.73-10.29-3.07-23.48,12.62-33.18,2.87,24.66-8.19,23.07-12.62,33.18"/>
    <path class="cls-3" d="M462.72,160.09c-7.36-8.75-23.92-9.5-32.81,1.74,0,0,7.4,4.66,14.14-1.82,3.77-3.62,5.96-4.5,9.82-5.5"/>
    <path class="cls-3" d="M432.98,150.98c-13.03,1.23-12.43-4.61-26.95-.77,3.86,3.01,8.48,11.24,23.3,2.56,1.17-.69,2.4-1.27,3.65-1.79,9.29-3.7,20.01-2.03,27.26,5.18,1.05,1.05,1.86,1.98,2.39,2.58"/>
    <g>
      <path class="cls-3" d="M516.03,219.55c-10.64,2.19-19.17,15.19-14.52,28.01,0,0,7.69-3.76,5.76-12.7-1.07-5-.67-7.28.48-11"/>
      <path class="cls-3" d="M514.98,218.9c-.7.12-1.59.29-2.59.53-9.72,2.32-16.63,10.37-18.33,20-5.68,11.47-10.22,7.97-14.5,22.01,4.49-1.66,13.71-1.27,14.11-18.06.03-1.33.18-2.65.39-3.95"/>
    </g>
    <path class="cls-3" d="M462.3,159.31c-2.84-13.1-13.69-42.92-50.91-60.33-49.32-23.07-50.33,4.47-55.11,17.16-4.78,12.69-21.57,13.25-21.57,13.25,5.64-5.19,4.92-16.61,25.38-24.96"/>
    <path class="cls-3" d="M374.58,90.66c-4.96-1.79-13.73-1.7-22.42.61-9.99,2.63-17.57-3.92-17.57-3.92,0,0,3.8-3.22,12.99-3.35,9.17-.12,14.97,4.26,19.48,5.42"/>
    <path class="cls-3" d="M462.92,136.42c1.96-1.11,4.06-3.09,6.15-5.7,2.74-3.49,5.41-8.06,7.41-13.08,3.85-9.57,13.65-11.75,13.65-11.75,0,0,.3,4.98-5.08,12.41-5.36,7.45-12.36,9.47-15.98,12.41"/>
    <path class="cls-3" d="M424.59,106.31c-3.47-1.28-6.15-1.72-8.51-1.54-4.72.38-8.15,3.33-13.92,7.22-8.62,5.82-17.22,1.7-17.22,1.7,0,0,7.36-10.58,19.23-9.93,8.08.44,6.72.77,11.91,1.01"/>
    <path class="cls-3" d="M468.49,107.31c2.43-4.58,2.15-3.22,5.98-10.35,5.63-10.46-.82-21.62-.82-21.62,0,0-7.39,6.04-5.78,16.31,1.07,6.87,2.26,11.22.61,15.66-.81,2.13-2.24,4.25-4.67,6.71"/>
    <path class="cls-3" d="M499.9,205.12c.62-3,.68-5.33.28-7.4-.35-5.17.13-3.86-.36-11.94-.73-11.86-12.08-17.95-12.08-17.95,0,0-3.1,9.02,3.67,16.91,4.53,5.27,7.83,8.34,8.77,12.98"/>
    <path class="cls-3" d="M451.45,133.47c9.92-16.96,2.05-25.64-2.97-40.34-9.46,24.21,5.55,25.48,3.02,40.09"/>
    <path class="cls-3" d="M442.84,62.61c-6.7-3.82-12.61-5.07-21.71-4.63-2.78.14-5.82.43-9.29.86-14.87,1.82-22.17-9.18-22.17-9.18,0,0,5-1.25,12.71.34,7.59,1.57,14.41,6.36,18.75,7.98"/>
    <line class="cls-3" x1="431.36" y1="53.84" x2="431.38" y2="53.85"/>
    <path class="cls-3" d="M415.47,38.35c-.79-2.03-1.41-4.29-1.86-6.84-2.78-15.93-14.88-22.54-14.88-22.54,0,0-.89,4.38,1.47,11.07,2.7,7.73,6.27,8.15,15.28,18.3,2.12,5.62,5.3,9.3,8.52,11.73"/>
    <path class="cls-3" d="M455.63,71.28c6.2-24.4-6.67-32.68-6.67-32.68-.11.35-3.02,9.64-.77,16.67,2.76,8.64,6.97,10.48,7.44,16.01.04.29.05.6.06.91.04,3.63.55,7.53.98,10.16v.02"/>
    <path class="cls-3" d="M376.09,231.37c-2.48-.9-5.62-.3-8,.49-5.57,1.84-10.41,4.11-20.32,2.42,0,0,9.2-13.35,28.32-2.91,12.69,4.61,31.22,26.46,60.67,12.72,7.37-3.44,13.98-8.27,19.68-14.06,12.14-12.33,26.09-26.6,50.88-15.19,0,0,15.4,6.42,24.42,18.42"/>
    <path class="cls-3" d="M480.33,222.76c-3.24,6.58,2.3,11.52-11.46,20.62-1.79-12.12,7.83-14.32,11.46-20.62,5.36-9.38,11.02-11.47,13.09-11.93"/>
    <path class="cls-3" d="M471.51,216.67c-7.6,0-15.08-8.09-13.16-17.42,0,0,5.54,1.76,5.13,7.97-.23,3.47.27,4.96,1.41,7.35"/>
    <path class="cls-3" d="M470.78,217.19c-.53,0-1.35-.02-2.34-.11-6.77-.6-12.21-5.33-14.31-11.64-.27-.85-.5-1.73-.65-2.62-1.93-11.25-8.1-10.08-11.28-10.75,4.26,9.02,6.98,6.22,11.93,13.37"/>
    <path class="cls-3" d="M470.21,216.96c-7.88,4.17-26.97,11.25-51.76-.21-32.85-15.19-19.28-27.5-14.88-35.36s-2.5-16.64-2.5-16.64c-.22,5.09-6.34,9.62-1.82,23.59"/>
    <path class="cls-3" d="M394.61,198.31c-2.52-1.8-7.23-2.87-11.1-7.58-3.87-4.73-3.86-8.04-3.86-8.04,0,0,6.58,1.05,9.52,7.25,2.55,5.41,6.26,9.91,9.29,11.66"/>
    <path class="cls-3" d="M459.29,232.47c.06,3.1,2.02,7.53.54,13.44-1.48,5.92-4.14,7.9-4.14,7.9,0,0-3.09-5.91.13-11.97,1.69-3.17,2.87-6.49,3.47-9.37.43-2.18.54-4.1.26-5.57"/>
    <path class="cls-3" d="M423.41,216.65c-2.35-2.54-1.93-1.7-5.62-5.62-5.42-5.75-3.19-14.03-3.19-14.03,0,0,5.78,2.6,6.51,9.48.49,4.6.47,7.6,2.29,10.17.92,1.28,2.29,2.45,4.43,3.67"/>
    <path class="cls-3" d="M466.42,184.28c-3.35-.84-2.55-.37-7.78-1.63-7.68-1.85-10.35-9.99-10.35-9.99,0,0,6.26-.98,10.64,4.37,2.93,3.58,4.55,6.11,7.48,7.25,1.47.57,3.26.8,5.71.65"/>
    <path class="cls-3" d="M448.56,236.96c-.21,2.29-.67,3.93-1.41,5.25-1.55,2.74-4.27,4-8.22,6.39-5.91,3.58-5.82,9.92-5.82,9.92,0,0,8.43-1.5,11.34-8.84,1.98-5,1.41-4.27,2.7-7.47"/>
    <path class="cls-3" d="M453.15,222.34c-4.37,12.3-12.16,12.02-21.78,15.77,8.26-15.18,15.33-8.09,21.67-15.63"/>
    <path class="cls-3" d="M401.78,239.26c-2.68-1.51-8.04-2.93-12.09-6.11-4.11-3.24-5.61-6.32-5.61-6.32,0,0,8.72-1,14.16,7.34,1.27,1.95,2.42,3.62,3.54,5.09,3.67,4.82,6.84,7.28,11.65,9.05"/>
    <line class="cls-3" x1="404.07" y1="246.24" x2="404.06" y2="246.23"/>
    <path class="cls-3" d="M398.99,244.09c-2.61-.59-5.85-.64-9.61.69-9.01-.23-10.76-1.86-15.85.07-4.41,1.67-6.26,4-6.26,4,0,0,8.54,3.32,17.83-2.09,1.49-.86,2.9-1.51,4.27-1.98"/>
    <path class="cls-3" d="M429.39,246.88h0c-1.52.92-3.72,2.33-5.58,3.87-.16.13-.32.25-.49.36-3.01,2.13-5.75.77-11.32,3.07-4.54,1.86-8.01,7.32-8.14,7.53,0,0,9.72,3,19.47-10.6"/>
    <g>
      <path class="cls-3" d="M239.67,48.6l4.89,2.14c-7.77,17.06-10.04,35.55-20.44,34.25"/>
      <path class="cls-3" d="M240.15,48.82l-4.89-2.14c-7.28,17.28-19.33,31.48-11.33,38.24"/>
      <line class="cls-3" x1="224.16" y1="84.61" x2="213.56" y2="108.81"/>
      <line class="cls-2" x1="219.93" y1="111.31" x2="207.4" y2="105.81"/>
      <path class="cls-3" d="M230.45,56.76c-.08,2.39,1.06,5.31,4.21,7.37,2.42,1.59,2.99,3.35,2.96,4.71"/>
      <circle class="cls-5" cx="227.48" cy="72.6" r=".74"/>
      <g>
        <path class="cls-5" d="M230.4,79.47h-.01c-1.29-.72-1.9-2.25-1.45-3.65-.73,1.28-2.26,1.87-3.66,1.41h-.01s0,0,.01,0c1.29.71,1.9,2.24,1.45,3.64.73-1.28,2.26-1.87,3.66-1.4h.01Z"/>
        <path class="cls-5" d="M226.71,80.91h0c.72-1.3,2.24-1.91,3.64-1.46-1.28-.73-1.87-2.26-1.41-3.66h0s0,0,0,0c-.71,1.29-2.24,1.9-3.64,1.45,1.28.73,1.87,2.26,1.4,3.66h0Z"/>
      </g>
    </g>
    <g>
      <path class="cls-3" d="M163.35,154.95l3.84-1.17c3.92,13.55,11.69,25.21,5.12,29.57"/>
      <path class="cls-3" d="M163.74,154.83l-3.84,1.17c4.31,13.43,4.39,27.44,12.27,27.39"/>
      <line class="cls-3" x1="172.14" y1="183.1" x2="177.95" y2="202.11"/>
      <line class="cls-2" x1="182.81" y1="200.41" x2="172.97" y2="203.42"/>
      <path class="cls-3" d="M162.09,164.12c1.13,1.4,3.21,2.51,6.01,2.15,2.16-.28,3.35.44,4,1.23"/>
      <circle class="cls-5" cx="168.16" cy="174.62" r=".56"/>
      <g>
        <path class="cls-5" d="M173.19,177.11h0c-1.09.23-2.18-.35-2.61-1.37.21,1.08-.38,2.17-1.4,2.6h0s0,0,0,0c1.08-.23,2.18.35,2.61,1.37-.21-1.08.37-2.18,1.4-2.59h0Z"/>
        <path class="cls-5" d="M171.78,179.74h0c-.22-1.1.35-2.19,1.37-2.62-1.08.21-2.17-.38-2.6-1.4h0s0,0,0,0c.23,1.08-.35,2.18-1.37,2.61,1.08-.21,2.18.37,2.59,1.4h0Z"/>
      </g>
    </g>
    <path class="cls-3" d="M154.64,36.07c3.45-1.99,5.79-6.18,7.19-9.68,3.29-8.2,5.36-15.96,16.91-25.73,0,0,6.44,23.52-24.1,35.4-17.59,10.13-60.7,10.27-73.44,57.48-3.18,11.81-4.04,24.1-2.9,36.27,2.42,25.93,5.31,55.8-31.84,73.25,0,0-61.04,22.68-42.63,88.21"/>
    <path class="cls-3" d="M63.52,164.34c-4.43-10.11-15.48-8.52-12.62-33.18,15.68,9.69,8.89,22.89,12.62,33.18,5.59,15.26,2.52,23.79,1.03,26.63"/>
    <path class="cls-3" d="M79.08,160.09c7.36-8.75,23.92-9.5,32.81,1.74,0,0-7.4,4.66-14.14-1.82-3.77-3.62-5.96-4.5-9.82-5.5"/>
    <path class="cls-3" d="M79.18,158.75c.52-.6,1.33-1.53,2.39-2.58,7.25-7.21,17.97-8.88,27.26-5.18,1.25.51,2.47,1.1,3.65,1.79,14.82,8.69,19.44.45,23.3-2.56-14.51-3.84-13.91,2-26.95.77"/>
    <g>
      <path class="cls-3" d="M34.05,223.86c1.15,3.72,1.55,6,.48,11-1.93,8.94,5.76,12.7,5.76,12.7,4.65-12.82-3.88-25.82-14.52-28.01"/>
      <path class="cls-3" d="M47.74,239.43c.21,1.3.36,2.62.39,3.95.4,16.79,9.62,16.4,14.11,18.06-4.28-14.04-8.82-10.54-14.5-22.01-1.7-9.63-8.61-17.68-18.33-20-1-.24-1.89-.41-2.59-.53"/>
    </g>
    <path class="cls-3" d="M79.66,159.23c2.84-13.1,13.54-42.85,50.75-60.26,49.32-23.07,50.33,4.47,55.11,17.16,4.78,12.69,21.57,13.25,21.57,13.25-5.64-5.19-4.92-16.61-25.38-24.96"/>
    <path class="cls-3" d="M174.74,89.42c4.51-1.15,10.32-5.54,19.48-5.42,9.19.13,12.99,3.35,12.99,3.35,0,0-7.59,6.56-17.57,3.92-8.69-2.31-17.46-2.4-22.42-.61"/>
    <path class="cls-3" d="M72.73,130.72c-3.63-2.94-10.62-4.97-15.98-12.41-5.38-7.44-5.08-12.41-5.08-12.41,0,0,9.8,2.17,13.65,11.75,2.01,5.02,4.68,9.59,7.41,13.08,2.09,2.61,4.19,4.59,6.15,5.7"/>
    <path class="cls-3" d="M125.72,104.78c5.19-.24,3.83-.57,11.91-1.01,11.87-.65,19.23,9.93,19.23,9.93,0,0-8.6,4.12-17.22-1.7-5.77-3.89-9.2-6.83-13.92-7.22-2.36-.18-5.04.26-8.51,1.54"/>
    <path class="cls-3" d="M77.98,114.02c-2.43-2.46-3.86-4.58-4.67-6.71-1.65-4.44-.45-8.79.61-15.66,1.61-10.27-5.78-16.31-5.78-16.31,0,0-6.45,11.16-.82,21.62,3.83,7.13,3.55,5.77,5.98,10.35"/>
    <path class="cls-3" d="M41.62,197.72c.94-4.64,4.24-7.71,8.77-12.98,6.77-7.89,3.67-16.91,3.67-16.91,0,0-11.35,6.09-12.08,17.95-.49,8.08-.01,6.77-.36,11.94-.4,2.07-.34,4.4.28,7.4"/>
    <path class="cls-3" d="M90.35,133.47c-9.92-16.96-2.05-25.64,2.97-40.34,9.46,24.21-5.55,25.48-3.02,40.09"/>
    <path class="cls-3" d="M120.67,57.98c4.34-1.62,11.17-6.41,18.75-7.98,7.71-1.59,12.71-.34,12.71-.34,0,0-7.3,11-22.17,9.18-3.48-.43-6.52-.72-9.29-.86-9.1-.44-15.01.81-21.71,4.63"/>
    <line class="cls-3" x1="110.42" y1="53.85" x2="110.44" y2="53.84"/>
    <path class="cls-3" d="M117.81,50.09c3.22-2.43,6.4-6.11,8.52-11.73,9-10.15,12.57-10.57,15.28-18.3,2.36-6.69,1.47-11.07,1.47-11.07,0,0-12.1,6.6-14.88,22.54-.45,2.55-1.07,4.81-1.86,6.84"/>
    <path class="cls-3" d="M85.15,82.36v-.02c.42-2.63.93-6.52.97-10.16.01-.31.02-.61.06-.91.47-5.53,4.68-7.37,7.44-16.01,2.25-7.03-.66-16.31-.77-16.67,0,0-12.87,8.28-6.67,32.68"/>
    <path class="cls-3" d="M8.4,235.64c6.6-11.85,26.07-20.8,26.07-20.8,24.78-11.41,38.73,2.86,50.88,15.19,5.7,5.79,12.31,10.62,19.68,14.06,29.45,13.74,47.99-8.11,60.67-12.72,19.13-10.44,28.32,2.91,28.32,2.91-9.91,1.69-14.75-.58-20.32-2.42-2.37-.78-5.51-1.39-8-.49"/>
    <path class="cls-3" d="M48.38,210.83c2.08.46,7.73,2.55,13.09,11.93,3.63,6.3,13.25,8.5,11.46,20.62-13.76-9.1-8.22-14.04-11.46-20.62"/>
    <path class="cls-3" d="M70.3,216.67c7.6,0,15.08-8.09,13.16-17.42,0,0-5.54,1.76-5.13,7.97.23,3.47-.27,4.96-1.41,7.35"/>
    <path class="cls-3" d="M87.66,205.45c4.96-7.15,7.67-4.35,11.93-13.37-3.18.67-9.35-.5-11.28,10.75-.15.89-.38,1.77-.65,2.62-2.1,6.31-7.54,11.04-14.31,11.64-.99.09-1.81.1-2.34.11"/>
    <path class="cls-3" d="M71.59,216.96c7.88,4.17,26.97,11.25,51.76-.21,32.85-15.19,19.28-27.5,14.88-35.36-4.41-7.86,2.5-16.64,2.5-16.64.22,5.09,6.34,9.62,1.82,23.59"/>
    <path class="cls-3" d="M143.34,201.6c3.04-1.75,6.74-6.25,9.29-11.66,2.94-6.21,9.52-7.25,9.52-7.25,0,0,0,3.31-3.86,8.04-3.87,4.71-8.58,5.78-11.1,7.58"/>
    <path class="cls-3" d="M82.25,226.91c-.27,1.47-.17,3.39.26,5.57.6,2.88,1.78,6.2,3.47,9.37,3.22,6.06.13,11.97.13,11.97,0,0-2.66-1.98-4.14-7.9-1.49-5.91.48-10.34.54-13.44"/>
    <path class="cls-3" d="M113.96,220.32c2.14-1.22,3.51-2.39,4.43-3.67,1.83-2.56,1.8-5.57,2.29-10.17.73-6.88,6.51-9.48,6.51-9.48,0,0,2.23,8.27-3.19,14.03-3.69,3.92-3.27,3.08-5.62,5.62"/>
    <path class="cls-3" d="M69.67,184.93c2.46.15,4.25-.08,5.71-.65,2.93-1.15,4.55-3.68,7.48-7.25,4.37-5.35,10.64-4.37,10.64-4.37,0,0-2.66,8.14-10.35,9.99-5.23,1.26-4.42.79-7.78,1.63"/>
    <path class="cls-3" d="M94.65,242.21c1.29,3.2.71,2.47,2.7,7.47,2.91,7.34,11.34,8.84,11.34,8.84,0,0,.09-6.34-5.82-9.92-3.95-2.4-6.67-3.65-8.22-6.39-.74-1.32-1.2-2.96-1.41-5.25"/>
    <path class="cls-3" d="M88.65,222.34c4.37,12.3,12.16,12.02,21.78,15.77-8.26-15.18-15.33-8.09-21.67-15.63"/>
    <path class="cls-3" d="M128.37,248.31c4.81-1.77,7.98-4.24,11.65-9.05,1.12-1.47,2.27-3.14,3.54-5.09,5.44-8.34,14.16-7.34,14.16-7.34,0,0-1.5,3.08-5.61,6.32-4.05,3.19-9.41,4.6-12.09,6.11"/>
    <line class="cls-3" x1="137.74" y1="246.23" x2="137.73" y2="246.24"/>
    <path class="cls-3" d="M152.42,244.79c1.37.47,2.78,1.12,4.27,1.98,9.29,5.41,17.83,2.09,17.83,2.09,0,0-1.84-2.33-6.26-4-5.09-1.94-6.83-.3-15.85-.07-3.76-1.33-7-1.29-9.61-.69"/>
    <path class="cls-3" d="M118.48,251.1c9.75,13.6,19.47,10.6,19.47,10.6-.13-.21-3.61-5.67-8.14-7.53-5.57-2.3-8.31-.95-11.32-3.07-.16-.11-.33-.23-.49-.36-1.86-1.54-4.06-2.94-5.58-3.85h0"/>
    <g>
      <path class="cls-1" d="M262.26,245.6s.03-2.66-2.56-5.15c0,0,2.98-.34,5.62,2.3,0,0,2.04.85,5.87.68,3.83-.17,9.96,1.7,13.02,4.3,3.06,2.6,15.36,11.7,17.45,13.32s7.11,3.57,10.6,2.85,9.94-2.86,16.25-1.66c5.91,1.12,9.45,7.58,9.45,7.58,0,0,7.53-1.91,12.04,1.23,4.51,3.15,2.83,11.7,2.68,12.89-.21,1.7-1.66,9.06,5.23,12.17-5.82,1.15-8.59-3.32-9.32-11.53-1.27,2.72-1.87,5.36.13,9.06-2.81-1.56-3.77-4.56-4.04-8.09-.12-3.56.08-5.66-.89-8.17-1.22-2.35-2.89-3.18-5.02-2.47.18,2.9.17,5.65-.43,7.91-.98,2.77-1.75,5,.08,7.91,1.23,1.91,4.85,2.51,4,6.81-.27,2.38-.26,4.31-.13,6.03.06.77.36,1.51.89,2.07.37.4.7.82.96,1.27.34.61.46,1.32.33,2.01-.41,2.27.31,3.75,2.41,4.28,1.38.15,2.22.95,2.34,2.64v3.62c-.02,1.07-1.08,1.38-2,.6l-1.79-1.96c-.44,0-.88-.15-1.27-.39-.7-.43-1.08-1.21-1.16-2.03-.12-1.26-.65-1.29-1.62-1.88-1.41-.64-2.58-1.37-2.55-2.51l-.07-3.82c-.04-2.24-.34-4.46-.9-6.63l-.48-1.84c-.85-2.13-2.86-3.43-4.94-4.68-2.43-1.89-4.16-4.6-5.15-7.33"/>
      <path class="cls-1" d="M336,276.14s-.55,4.3-10.98,12.47c0,0-2.26,2.26-1.87,6.98.38,4.72.47,5.49-3.36,9.96s-4.38,6.81-4.64,8.47-1.96,1.74-2.98,3.4c-1.02,1.66-.37,2.73-.94,3.36-1.23,1.36-6.45,1.21-7.62.21-.96-.82,0-2.28,1.96-3.21s1.7-1.34,2.6-3.3c.89-1.96,2.34-2.47,3.49-4.26s3.23-5.28,3.83-8.68c.64-9.79-3.87-14.98-.34-21.62"/>
      <path class="cls-1" d="M280.35,264.74c-4.01,4.45-4.18,10.64-3.83,14.35.19,2.03-.76,3.99-2.47,5.09l-4.64,2.98c-3.07,1.25-4.46,5.46-6.46,9.4-1.47,2.37-4.29,3.89-4.26,5.44.02,2.71-1.6,3.69-2.15,5.5l-1,2.46c-.31,1.17.43,1.99,1.4,1.55l3.27-1.56c1.47-.83,1.83-1.94,1.37-3.25-.42-2.12.6-3.41,2.83-4.01.67-.19.55-3.01,3.72-5.76,1.31-1.14,3.04-4.58,5.31-5.37,3.52-.89,5.39-1.8,7.04-3.3-.95,2.72-1.72,6.07-2.43,11.33-.6,3.4-2.68,6.89-3.83,8.68-1.15,1.78-2.6,2.29-3.49,4.25-.9,1.96-.64,2.36-2.6,3.3s-2.92,2.39-1.96,3.21c1.18,1,6.39,1.15,7.62-.21.57-.63-.08-1.7.94-3.36s2.72-1.75,2.98-3.41c.25-1.66,1.5-3.61,4.31-8.78,2.57-4.76,3.31-14.75,9-15.26,4.24-.38,15.84,2.6,22.9-.53"/>
      <path class="cls-1" d="M265.76,242.71s4.81-4.99,19.87.2l-2.77,1.15s7.32,2.26,14.6,8.13l-3.96-.17,13.4,7.45s-3.02,1.87-6.64.3"/>
      <path class="cls-1" d="M262.01,244.11s-1.91-1.27-4.56-1.33c0,0,2.64,3.8,2.52,4.63-.33,2.35-.45,5.84-.13,9.16s-1.56,4.5-1.12,5.65,2.01,4.72,4.18,3.51,2.01-3.1,2.01-3.1"/>
      <path class="cls-1" d="M263.68,265.59s3.28.47,3.62-2.94c.34-3.4,6.38-3.57,6.04-10.09"/>
      <path class="cls-1" d="M273.43,255.59s5.71,3.5,4.42,13.05"/>
      <path class="cls-1" d="M262.53,262.22s-.76.09.21-1.47"/>
      <path class="cls-1" d="M263.33,254.17c.12-.92.76-2.83,2.44-3.32"/>
      <path class="cls-1" d="M265.02,251.45s.29,1.09-1.2,1.69c0,0,.24-.55.34-.72s.85-.98.85-.98Z"/>
      <path class="cls-1" d="M216.87,255.47s.23-.75.36-.9c.1-.21.67-.1.95-.09.83.05,1.89.22,2.17-.08.36-.4.27-2.41.41-2.54s.93-.46.85-.68c-.02-.07-.13-.26-.28-.51-.32-.59-.84-1.44-.84-1.44,0,0,.24-.3.21-.94-.03-.56-.27-1.89-.34-2.23,0-.05,0-.08,0-.08.11-.16.44-.29.71-.37h0c.21-.06.37-.1.37-.1-.01-.08-.06-.16-.13-.24-.28-.3-.91-.55-.91-.55.08-.07.14-.14.2-.21l.12-.15h0c.36-.52.32-.91.32-.91,0,0-.3.07-.75.12-.23.02-.5.04-.78.05-.35,0-.72-.01-1.06-.08h-.05c-.53-.1-1.15-.11-1.66-.09h-.14c-.52.02-.89.07-.89.07l.07-.09.47-.63s-.42.08-1.05.26l-.1.03c-.39.12-.85.27-1.35.46-.03,0-.05.02-.08.03-.5.19-.88.46-1.17.76-.07.07-.13.14-.19.21h-.01c-.41.5-.65,1.03-.9,1.42-.22.34-.38.94-.45,1.56h0c-.02.24-.03.46-.03.68,0,.4.05.78.16,1.05.04.1.09.22.15.34h0c.15.32.35.68.54,1.02l.11.2c.16.25.3.49.4.66h.01c.1.17.16.27.16.27,0,0,.01.36-.01.82,0,.65-.04,1.49-.16,1.79,0,0-.6.01-.86.33-.25.32-.33.75-.72,1.3-.38.54-3.47,2.48-5.1,2.74,0,0-1.53.38-1.95,4.31-.41,3.92-7.34,15.62-8.17,16.73,0,0,.93,1.47,2.78,1.57,0,0,8.49-10.98,9.03-13.47,0,0-1.09,13.61-3.47,18.97,1.73.1,2.97-.59,4.24-1.23,0,0-7.09,14.91-8.81,19.28-1.9,4.81-3.82,8.9-4.33,9.37-.51.46,1.35,3.69,5.9,3.14,0,0,2.81-7.06,4.55-10.77,1.75-3.7,6.81-15.7,6.81-15.7,0,0-.17,8.6-.55,10.32s-2.86,14.41-2.67,15.56,4.14.85,6.37.02c0,0,.5-5.49.95-7.79.45-2.29,1.34-5.8,1.85-11.23s3.39-10.03,3.39-13.41-.12-6.19,1.22-6.19,2.11,1.36,2.34,2.8c0,0,3.32-3.31.38-16.33s7.02-16.79,10.6-22.15c0,0-.83-1.79-2.17-2.56,0,0-7.5,5.94-12.56,10.7"/>
      <path class="cls-1" d="M195.8,280.3s-1.45,2.45-.98,6.83c0,0,1.34.46,2.19-2.33,0,0,1.49.52,1.45-.03-.12-1.54-1.44-1.66-.85-3.49"/>
      <path class="cls-1" d="M195.6,316.13s-1.84,2.05-.21,6.43c0,0,1.28.59,1.91.68s1.52-4.31,2.32-5.65"/>
      <path class="cls-1" d="M209.4,317.34c-.52.77-1.11,1.4-1.18,3.29.56.42,1.22.66,2.07.51l.41-1.15c-.05-.06,2.12.18,3.03,1.24.6.71,6.64-.1,7.05-.1s.1-1.53.1-1.53l-6.41-2.33"/>
      <path class="cls-1" d="M218.03,257.09c3.02,2.06,1.98,6.09,1.13,10.98-.85,4.89-.6,9.7-.6,9.7-3.06.89-6.85.51-6.85.51.47-2.81-.22-18.01-.22-18.01,0,0,.06-2.3-1.44-3.54"/>
      <path class="cls-4" d="M215.15,257.88l-2.65-.68c-.21-.05-.4.14-.34.35.25.91.83,2.89,1.25,3.28.54.51,1.73-2.96,1.73-2.96Z"/>
      <path class="cls-4" d="M215.5,257.76s.57-1.02,1.53-1.59,1.21,2.29,1.21,2.96-2.74-1.37-2.74-1.37Z"/>
      <path class="cls-1" d="M212.3,254.46s1.34,1.85,4.56,1.02"/>
      <path class="cls-1" d="M234.48,240.35s1.38-2.32,3.85-3.28c1.73-.67,3.1.71,3.11,1.75,0,.49-.28.93-.73,1.13-.7.31-1.81.67-2.75.35l-2.07,1.35"/>
      <path class="cls-1" d="M265.31,291.71c-3.1-2.76-7.11-5.64-12.84-8.84"/>
      <path class="cls-1" d="M279.91,307.11c3.27,2.07,6.07,2.69,6.07,2.69,0,0-2.09,1.72-8.02,5.04-1.11.62-2.32,1.03-3.57,1.28"/>
      <path class="cls-1" d="M239.1,240.41c-.01.58-.17,1.33-.72,1.94-1.06,1.2-8.98,9.94-9.74,18.62-.77,8.68,4.16,11.89.76,18.32-3.86,7.31-6.22,12.28-7.06,21-.98,10.21-3.09,13.21-3.92,14.81.86.38,5.59,1.05,7.79,3.25,3.78,3.78,8.48,4.01,12.28,1.79,2.52-1.47,4.45-1.97,8.87-1.79,6.03.26,7.53-3.12,11.81-3.06,2.01.03,4.97.67,8.15.98"/>
      <path class="cls-1" d="M269.24,295.65c1.84,2.04,3.38,4.09,4.99,6.24.69.92,1.43,1.75,2.19,2.47"/>
      <path class="cls-1" d="M235.67,250.48s2.88-.41,4.14-.24c1.69.22,2.55,2.1,2.87,2.95s1.18,6.15,2.11,8.96c.93,2.81,2.16,4,2.16,4,0,0-1.82.89-3.89-1.63,0,0,0,3.61-1.91,4.76"/>
      <path class="cls-1" d="M241.2,237.89s1.71.45,1.77,1.76c.06,1.31-1.24,2.87-3.41,4.91s-6.1,8.77-6.44,14.09c0,0,1.07-.94,2.21-1.38s1.47-2.44,4.74-4.48c0,0,.52,1.11.16,2.13-.14.87.15,1.17.36,1.82,0,0-.4.3-.93.49,0,0-.13,1.21-.72,1.34s-1.81-.37-1.81-.37c0,0-.48,1.28.12,2.39,0,0,1.88.16,3.16,1.31s1.05,3.81.91,5.37c-.26,2.85-1.62,4.21,0,5.49,2.11,1.67,5.65,5.29,6.7,6.53s3.96,1.15,4.47,2.39c.51,1.24-.55,1.69-.55,1.69-1.31-.03-3.54-.89-4.85-2.43s-5.17-3.93-6.61-4.98c-1.44-1.05-2.81-2.07-2.65-4.44s1.69-6.51-.29-7.69c-1.98-1.18-4.09,1.4-4.09,1.4-3.16-3.93-4.6-.51-4.6-.51"/>
      <polygon class="cls-5" points="233.14 258.29 233.9 254.93 235.22 251.16 235.78 250.5 237.6 250.31 239.86 250.31 241.5 251.14 242.58 253.12 243.24 255.69 243.67 258.33 244.58 261.52 245.43 263.73 246.63 266 246.5 266.17 245.53 266.1 244.49 265.68 243.08 264.5 242.74 266.22 242.07 268.21 241.19 269.12 241.14 268.5 241.49 266.32 241.37 264.79 241.13 263.13 240.12 261.59 238.6 260.87 237.24 260.59 236.96 259.4 237.2 258.17 238.24 258.56 239.25 258.49 239.67 257.29 240.47 256.89 240.39 256.16 240.29 254.85 240.41 253.74 240.19 252.87 239.23 253.2 237.83 254.46 236.56 255.84 235.85 256.86 235.07 257.35 233.56 258.24 233.09 258.52 233.14 258.29"/>
      <path class="cls-5" d="M300.67,281.14h-.01c-.36-.38-8.46-8.82-4.75-11.57,2.32-1.73,4.31,1.07,4.76,1.77.44-.7,2.43-3.5,4.76-1.77,3.71,2.75-4.4,11.19-4.76,11.57Z"/>
      <path class="cls-5" d="M220.28,246.11s-.32,1.12-1.34,1.12-2.73,2.35-2.76,2.86l-.43.23s-.35-.89-.86-.89-.99,1.05-1.05,1.37-1.18,2.07-1.34,2.11l-.21-1.46-1-1.59-.42-1.93.34-1.53,1.18-1.99,1.74-1.1,1.85-.43-.22.55,1.68.03,2.39.18,1.05-.14-.15.87-.23.3.86.55-.31.44-.77.46Z"/>
      <circle class="cls-5" cx="216.81" cy="262.63" r=".57"/>
      <circle class="cls-5" cx="216.81" cy="268.38" r=".57"/>
      <circle class="cls-5" cx="216.81" cy="273.67" r=".57"/>
      <g>
        <path class="cls-5" d="M223.73,311.77h.01c1.44-.14,2.59-1.27,2.74-2.71.15,1.43,1.3,2.57,2.74,2.71h.01-.01c-1.44.13-2.59,1.27-2.74,2.7-.15-1.43-1.29-2.57-2.74-2.7h-.01Z"/>
        <path class="cls-5" d="M226.49,314.52h0c-.14-1.46-1.27-2.6-2.71-2.75,1.43-.15,2.57-1.3,2.71-2.74h0s0,0,0,0c.13,1.44,1.27,2.59,2.7,2.74-1.43.15-2.57,1.29-2.7,2.74h0Z"/>
      </g>
      <g>
        <path class="cls-5" d="M229.69,316.65h0c.64-.06,1.16-.57,1.22-1.21.07.64.58,1.15,1.22,1.21h0,0c-.64.06-1.16.57-1.22,1.21-.07-.64-.58-1.15-1.22-1.21h0Z"/>
        <path class="cls-5" d="M230.92,317.87h0c-.06-.65-.57-1.16-1.21-1.23.64-.07,1.15-.58,1.21-1.22h0s0,0,0,0c.06.64.57,1.16,1.21,1.22-.64.07-1.15.58-1.21,1.22h0Z"/>
      </g>
      <g>
        <path class="cls-5" d="M252.16,289.84h0c.98-.09,1.75-.86,1.86-1.83.1.97.88,1.74,1.86,1.83h0,0c-.98.09-1.75.86-1.86,1.83-.1-.97-.88-1.75-1.86-1.83h0Z"/>
        <path class="cls-5" d="M254.03,291.7h0c-.09-.99-.86-1.76-1.83-1.86.97-.1,1.74-.88,1.83-1.86h0s0,0,0,0c.09.98.86,1.75,1.83,1.86-.97.1-1.75.88-1.83,1.86h0Z"/>
      </g>
      <g>
        <path class="cls-5" d="M230.84,284.09h0c.64-.06,1.16-.57,1.22-1.21.07.64.58,1.15,1.22,1.21h0,0c-.64.06-1.16.57-1.22,1.21-.07-.64-.58-1.15-1.22-1.21h0Z"/>
        <path class="cls-5" d="M232.07,285.32h0c-.06-.65-.57-1.16-1.21-1.23.64-.07,1.15-.58,1.21-1.22h0s0,0,0,0c.06.64.57,1.16,1.21,1.22-.64.07-1.15.58-1.21,1.22h0Z"/>
      </g>
      <path class="cls-5" d="M232.91,258.04c-.02.41-.04.27-.12,1.1-.1,1.02-.6,1.63-2.01,2.37,0,0,2.92.87,3.99-1.69.62-1.5.65-1.67,1.68-3.22"/>
      <path class="cls-5" d="M266.13,242.81l.67-.77,2.78-1.02,4.05-.35,3.73.29,4.56.96,3.1.89-2.23,1.05,1.98.93,4.76,2.27,3.56,2.15,3.53,2.49s-.4.26-.45.26-2.41-.11-2.41-.11l2.47,1.59,4.79,2.84,5.62,3.19-3.16.83-3.22-.32-5.71-4.44-6.19-4.63-5.94-4.37-3.29-1.88-5.97-1.34-4.91-.06-2.1-.44Z"/>
      <path class="cls-5" d="M260.15,247.7c-1.31-.82-3.49,1.03-3.49,1.03.12-1.97,2.38-3.29,2.38-3.29l.68.72.43,1.54Z"/>
      <path class="cls-5" d="M259.26,247.07s-1.03.58-.9,2.01c0,0,1.11-1.44,1.68-1.23s-.16-1.44-.16-1.44l-.62.66Z"/>
      <path class="cls-5" d="M337.37,269.36s.24,1.19,1.19,1.59c0,0-.4.55-2.38.47-.01.53,1.47,1.28,2.57,1-.77.19-1.55,1.67-.67,2.42.44-.25.64-.33.96-.12l2.62.1,1.4,1.32,1,2.51.53,3.04.04,3.09.89,4.83,1.79,3.04,1.06.66-.6-2.74-.38-3.13,1.06-2.64.66,3.34.94,3.77,1.85,2.57,2.43,1.53,3.04.26-.77-.74-2.94-3.11-1.17-3.36.02-4.4.53-3.81-.23-4.66-1.43-3.57-1.66-1.96-4.32-1.28-4.21-.26-2.66.6-1.18-.35Z"/>
    </g>
  </g>
</svg>