<?xml version="1.0" encoding="UTF-8"?>
<svg id="Layer_2" data-name="Layer 2" xmlns="http://www.w3.org/2000/svg" viewBox="0 0 142.6 77.4">
  <defs>
    <style>
      .cls-1 {
        stroke-linecap: round;
        stroke-linejoin: round;
      }

      .cls-1, .cls-2 {
        fill: none;
        stroke: #7c4432;
        stroke-width: .75px;
      }

      .cls-3 {
        fill: #7c4432;
      }

      .cls-2 {
        stroke-miterlimit: 10;
      }
    </style>
  </defs>
  <g id="Layer_1-2" data-name="Layer 1">
    <g>
      <g>
        <path class="cls-2" d="M17.27,62.74c-1.88.41-3.58,2-4.74,3.41-2.72,3.3-4.81,6.57-11.57,9.38,0,0,.48-11.79,16.31-12.79,9.6-2.09,29.5,4.17,42.3-15.73,3.2-4.98,5.4-10.52,6.66-16.3,2.69-12.31,5.74-26.51,25.43-29.11,0,0,29.24-3.64,50.85,1.63"/>
        <path class="cls-2" d="M78.11,16.96c.56,5.31,5.89,6.2.95,17.15-5.81-6.77-.74-11.86-.95-17.15-.34-7.86,2.33-11.34,3.43-12.43"/>
        <path class="cls-2" d="M70.31,16.63c-4.68,2.95-12.43.87-14.87-5.62,0,0,4.1-1.07,6.26,2.91,1.21,2.22,2.09,2.95,3.72,3.98"/>
        <path class="cls-2" d="M70.07,17.24c-.33.2-.84.51-1.48.84-4.4,2.26-9.59,1.46-13.33-1.61-.5-.42-.98-.87-1.42-1.36-5.56-6.18-8.9-3.06-11.12-2.24,6.13,3.9,6.71,1.12,12.54,3.6"/>
        <path class="cls-2" d="M14.82,27.24c-8.21-6.85-6.2-12.01-8.04-15.23,0,0,7.66,2.72,8,9.28.22,4.2-1.17,10.99,4.7,14.43.5.29,1.06.56,1.68.8"/>
        <path class="cls-2" d="M26.46,37.69c2.94.29,6.62.2,11.22-.4,2.23-.29,4.32-.7,6.28-1.2"/>
        <path class="cls-2" d="M69.63,17.31c-.06.1-.11.19-.16.29,0,0,0,.01,0,.01h-.01c-1.49,2.55-4.1,6.21-8.23,9.71-3.02,2.57-6.86,5.06-11.69,6.97"/>
        <path class="cls-2" d="M15.83,35.19c-2.25-.13-5.57,1.04-9.78-.36-4.22-1.41-5.5-3.45-5.5-3.45,0,0,4.46-1.91,8.68.77,3.67,2.34,7.7,3.67,10.25,3.57"/>
        <path class="cls-2" d="M68.93,31.11c1.24,1.89,4.17,3.85,5.55,8.07,1.39,4.22.52,6.47.52,6.47,0,0-4.2-2.44-4.57-7.42-.19-2.61-.75-5.11-1.5-7.12-.58-1.51-1.26-2.73-2-3.53"/>
        <path class="cls-2" d="M43.99,35.86c-1.36-.01-2.42-.2-3.3-.56-2.12-.87-3.27-2.73-5.36-5.37-3.12-3.95-7.69-3.31-7.69-3.31,0,0,1.84,5.96,7.41,7.4,3.79.98,3.21.63,5.64,1.28"/>
        <path class="cls-2" d="M64.06,38.04c.76,1.49,1.11,2.68,1.17,3.78.11,2.29-1.08,4.12-2.58,7.13-2.25,4.5.27,8.37.27,8.37,0,0,4.61-4.2,3.55-9.85-.72-3.85-.79-3.18-1.24-5.65"/>
        <path class="cls-2" d="M61.21,27.26c2.08,9.27-2.82,12.12-7.29,18.17-.81-12.55,6.3-10.94,7.28-18.04"/>
        <path class="cls-2" d="M36.15,57.62c-2.24.11-6.09,1.32-9.82.93-3.79-.4-5.91-1.71-5.91-1.71,0,0,4.98-4,11.57-.98,1.54.71,2.9,1.29,4.16,1.76,4.13,1.54,7.04,1.83,10.69,1.05"/>
        <line class="cls-2" x1="40.27" y1="61.03" x2="40.26" y2="61.03"/>
        <path class="cls-2" d="M36.31,61.68c-1.84.65-3.85,1.88-5.65,4.16-5.64,3.36-7.35,3.03-9.73,6.2-2.07,2.74-2.3,4.89-2.3,4.89,0,0,6.55-1.27,10.17-8.21.58-1.11,1.2-2.06,1.86-2.88"/>
        <path class="cls-2" d="M56.11,51.59h0c-.58,1.16-1.39,2.88-1.94,4.55-.05.14-.1.28-.16.41-1.03,2.48-3.24,2.71-5.78,6.29-2.07,2.91-2.09,7.62-2.09,7.8,0,0,7.15-1.93,7.87-14.09"/>
      </g>
      <g>
        <g>
          <path class="cls-1" d="M25.24,24.82c.07-2.22-1.69-2.67-2.86-2.86-.04,0-.07-.01-.09-.02-.14-.03-.27-.05-.38-.07"/>
          <g>
            <path class="cls-1" d="M30.17,48.22s-.01.01-.02,0h-.01c-3.85-2.87-1.38-5.05-5.58-9.72-2.81-2.8-2.46-7.38-1.05-11.99,1.29-4.24-.67-4.45-.67-4.45-.16-.03-.31-.06-.46-.1-.04,0-.07-.01-.09-.02-1.02-.26-1.72-.69-1.69-1.55.02-.38.12-.68.24-.9.18-.33.56-.49.93-.42l2.53.5c.88.17,1.54.99,1.39,1.87-.76,4.8-1.17,11.61.77,16.25,1.55,3.74,4.63,6.07,10.28,4.82h.06c4.55-1.01,6.6-3.41,7.16-6.42,0-.07.02-.15.03-.23.84-5.35-2.94-12.52-6.03-17.13-.5-.74-.25-1.75.47-2.28l2.09-1.52c.31-.22.72-.23,1.02-.01.21.15.42.38.6.72.38.76-.04,1.43-.84,2.08-.02.02-.04.03-.06.05-.13.11-.28.22-.43.33,0,0-1.7,1.02,1.26,4.32,3.22,3.59,5.46,7.6,4.09,11.32-.21.68-.36,1.3-.46,1.86-.75,4.4,1.51,5.56-.52,9.29l-.02.02"/>
            <path class="cls-1" d="M42.07,16.96c-1.79,1.96,6.11,9.59,7.46,17.33.65,3.71-.2,7.45-4.35,10.6l-.02.02c-.21.16-.44.33-.67.49-3.99,2.75-8.97,3.8-13.73,2.94-.2-.04-.4-.08-.59-.12h-.03c-6.84-1.5-8.73-6.46-8.98-11.7-.33-6.81,2.1-14.11.05-14.96"/>
            <path class="cls-1" d="M39.79,21.61c-1.01-2.02.48-3.18,1.45-3.84.02-.02.04-.03.06-.05.1-.06.19-.12.27-.18"/>
          </g>
        </g>
        <g>
          <path class="cls-3" d="M37.55,46.04c-.51.11-1.01-.21-1.12-.72-.11-.5.21-1,.71-1.11.51-.11,1.01.21,1.12.71.11.51-.21,1.01-.71,1.12Z"/>
          <g>
            <path class="cls-3" d="M32.27,46.42c-.5.11-1-.21-1.12-.72-.11-.5.21-1,.72-1.11.5-.11,1,.2,1.11.71.11.5-.2,1-.71,1.12Z"/>
            <path class="cls-3" d="M42.49,44.16c-.5.11-1-.21-1.11-.71-.11-.51.21-1.01.71-1.12.5-.11,1,.21,1.12.72.11.5-.21,1-.72,1.11Z"/>
          </g>
        </g>
      </g>
    </g>
  </g>
</svg>