<?xml version="1.0" encoding="UTF-8"?>
<svg id="Layer_2" data-name="Layer 2" xmlns="http://www.w3.org/2000/svg" viewBox="0 0 50.86 66.21">
  <defs>
    <style>
      .cls-1 {
        fill: none;
        stroke: #7c4432;
        stroke-linecap: round;
        stroke-miterlimit: 10;
        stroke-width: .75px;
      }
    </style>
  </defs>
  <g id="Layer_1-2" data-name="Layer 1">
    <g>
      <g>
        <path class="cls-1" d="M26.13,24.4c.14.45.58,1.37.87,1.92.71,1.33,1.55,2.28,2.63,3.34,1.23,1.21,2.61,2.27,3.79,3.53.7.74,1.22,1.63,1.73,2.51,0,0,5.53-1.35,8.78.92,3.25,2.27,2.04,8.44,1.93,9.3-.15,1.23-1.2,6.54,3.77,8.78-4.2.83-6.19-2.4-6.72-8.32-.92,1.96-1.35,3.87.09,6.54-2.03-1.13-2.72-3.29-2.91-5.83-.09-2.57.06-4.08-.64-5.89-.88-1.7-2.09-2.29-3.62-1.78,0,0,.33,1.65-.03,3.33-.37,1.48-.98,2.86-1.89,4.09-.31.42-1.02.86-1.12,1.34-.08.45-.05,1.79,0,2.27.19,1.72.92,1.28,1.85,2.19,1.78,1.72.57,2.75-.1,4.56-.18.5-.66,2.83-.79,3.3-.4,1.37-.17,1.62-.22,2.76-.03.52-.25,1.08-.21,1.66.02.22-.07.44-.27.55-.67.37-2.22.49-2.99.25-.25-.08-.37-.35-.29-.6.24-.78.45-1.79.73-2.43.22-.51.8-.64.91-.88.26-.56,1.01-3.9.94-4.52.06-3.3-3.07-5.24-4.93-7.97-1.01.48-1.92,2.4-1.96,3.47-.04,1.4,1.58,1.95,1.54,3.09-.04.94-1.37,3.47-1.71,4.63-.39,1.37-.16,1.62-.22,2.76-.03.52-.25,1.08-.21,1.66.02.22-.07.44-.27.55-.67.37-2.22.49-2.99.25-.25-.08-.37-.35-.29-.6.24-.78.45-1.79.73-2.43.22-.51.8-.64.91-.88.26-.56.79-3.91.72-4.52-.04-.4-.36-.92-.53-1.31-.27-.62-.69-1.02-.88-1.41l-.35-.7c-.05-.11-.13-.23-.18-.35-.47-1.04-1-2.82-1.05-3.95-.04-1.05.37-2,.37-2.97,0-.69-.29-.93-.36-1.42-.26-1.82.65-3.72,1.19-5.41-.99-.91-6.73-3.82-7.69-11.68-.36.24-.48.38-.95.36-1.7-.05-3.56-.62-5.24-.86-.82.22-.76,1.83-.61,2.48.11.49.85,1.1.97,1.67.11.47-.24,1.05-.06,1.28.15.19.58.13.79.26.99.63,1.65,2.42.54,3.14-1.9,1.24-1.9-1.92-2.37-2.88-.18-.36-.62-.41-.79-.66-.55-.79-.25-2.18-.36-3.11-.17-1.37-1.84-3.69.18-4.41,1.3-.46,4.18-.36,5.34-1.28.69-.56-.57-1.24-.84-1.62-.35-.48-.48-1.05-.89-1.57-.23-.3-1.87-1.86-2.12-1.75-2.13.91-3.39-.05-4.28,1.06.18,1.72.06,2.22-1.76,2.1-.27-.02-1.04-.13-1.23-.26-.48-.34.48-2,.81-2.36.48-.51,1.51-1.03,1.61-1.1.48-.37.02-.64,1.01-.88.72-.18.81.04,1.36,0,1.71-.13,3.66-1.04,5.27-.26.46.22,2.07,1.74,2.47,1.68,1.67-.97,2.93-2.58,3.78-4.29.39-.79,1.06-2.41,1.32-3.23.08-.23.15-.43.11-.69-.5.05-.91-.17-1.41-.1-.18.02-2.55.74-2.68.8-.36.19-.12,1.17-1.58.85-1.12-.25-1.21-1.41-1.14-2.2.04-.44.27-.83.63-1.09.5-.35,2.46-2.25,2.7-2.87.22-.57.38-1.48.78-1.95.48-.57,1.11-.19,1.54-1.51.39-1.16-.25-2.36-.25-2.36,0,0,1.05.11,1.92.58.84.26,1.39,1.71,1.52,1.98,0,0,.97-.21,3.01.33,1.8.48,4.65,2.66,4.29,4.78-.67-.41-1.13-.77-2.12-.87,0,0,3.11,4.85,2.6,9.36,0,0-.68-.31-2-1.55-1.24,3.21-.64,6.16.09,9.33Z"/>
        <path class="cls-1" d="M17.13,2.36s-.3-.68-1.64-1c0,0,.83,1.7.74,2.41"/>
      </g>
      <path class="cls-1" d="M27.42,49.31c-.32-.71-2.43-1.59-1.87-5.8,0,0,.64-2.19-3.67-3.75"/>
    </g>
  </g>
</svg>